# xmcd
#
# Track frame offsets:
#	150
#	12482
#	21380
#	33700
#	45860
#	54352
#	74000
#	82777
#	95255
#
# Disc length: 1406 seconds
#
# Revision: 0
# Processed by: cddbd v1.5.1PL0 Copyright (c) Steve Scherf et al.
# Submitted via: EasyCDDAExtractor 5.0.5.1
#
DISCID=6a057c09
DTITLE=Various Artist - Crossroads Marketing Hits! Vol. 1
DYEAR=1996
DGENRE=Bluegrass
TTITLE0=Tony Rice - In The Sweet Bye And Bye
TTITLE1=Tony Rice - Swing Low Sweet Chariot
TTITLE2=Tony Rice - I Feel Like Travelinng On
TTITLE3=Isaacs - I'm Gonna Move
TTITLE4=Isaacs - Don't You Wanna Go To Heaven (When You Die)
TTITLE5=Isaacs - Carry Me
TTITLE6=David Johnson - I'll Fly Away
TTITLE7=David Johnson - Old Time Religion
TTITLE8=David Johnson - Church In The Wildwood
EXTD=
EXTT0=
EXTT1=
EXTT2=
EXTT3=
EXTT4=
EXTT5=
EXTT6=
EXTT7=
EXTT8=
PLAYORDER=
